<svg width="110" height="95" viewBox="0 0 110 95" fill="none" xmlns="http://www.w3.org/2000/svg">
<path d="M82.2564 2.5H18.8851C9.83709 2.5 2.5 9.88383 2.5 18.9895V52.5308C2.5 61.6365 9.83272 69.016 18.8808 69.016H44.0477L78.9126 82.3183C81.2521 83.535 83.6091 80.7107 82.0116 78.6022L77.2108 69.016H82.2521C91.3001 69.016 98.6329 61.6365 98.6329 52.5308V18.9895C98.6329 9.88383 91.3001 2.50439 82.2521 2.50439L82.2564 2.5Z" fill="#01426A" stroke="#01426A" stroke-width="5" stroke-linejoin="round"/>
<path d="M65.2471 8.58813H35.8944C11.0243 9.18991 11.0024 27.0236 11.0024 27.0236V42.2788H28.9109V28.5126C28.9109 24.6867 29.9453 12.0363 50.5686 12.0363C72.2263 12.0363 72.2263 24.6867 72.2263 28.5126V33.1951H43.2009V42.2788H90.1391V27.0236C90.1391 27.0236 90.1173 9.18991 65.2471 8.58813Z" fill="#E5ECF0"/>
<path d="M50.573 17.6499C46.5182 17.6499 43.2097 20.5094 43.2097 24.6472V27.6341H57.9406V24.6472C57.9406 20.505 54.6278 17.6499 50.573 17.6499Z" fill="#E5ECF0"/>
<path d="M50.5685 53.5676C54.44 53.5676 57.6219 50.9585 57.9056 47.1194H43.2314C43.5108 50.9585 46.697 53.5676 50.5685 53.5676Z" fill="#75CEDE"/>
<path d="M71.6064 47.1194C70.201 51.5998 65.605 59.1769 50.5685 59.1769C35.5321 59.1769 30.8051 51.5998 29.4738 47.1194H11.4912C12.8094 52.2762 17.7022 61.9266 35.8943 62.3658V62.3966H65.247V62.3658C83.4348 61.9222 88.332 52.2762 89.6502 47.1194H71.6064Z" fill="#75CEDE"/>
</svg>
